<?xml version="1.0" standalone="no"?><!DOCTYPE svg PUBLIC "-//W3C//DTD SVG 1.1//EN" "http://www.w3.org/Graphics/SVG/1.1/DTD/svg11.dtd"><svg t="1594452250884" class="icon" viewBox="0 0 1024 1024" version="1.1" xmlns="http://www.w3.org/2000/svg" p-id="3013" xmlns:xlink="http://www.w3.org/1999/xlink" width="64" height="64"><defs><style type="text/css"></style></defs><path d="M452.266667 571.733333c-8.533333-4.266667-17.066667-8.533333-25.6-4.266666-8.533333 4.266667-17.066667 8.533333-21.333334 17.066666l-25.6 46.933334c-34.133333 68.266667-98.133333 115.2-170.666666 123.733333h-85.333334c-21.333333 0-34.133333 17.066667-34.133333 38.4s17.066667 38.4 34.133333 38.4h85.333334c98.133333-4.266667 187.733333-68.266667 230.4-157.866667l25.6-46.933333c4.266667-8.533333 8.533333-21.333333 4.266666-29.866667-4.266667-12.8-8.533333-21.333333-17.066666-25.6z m76.8-136.533333c4.266667 4.266667 12.8 4.266667 17.066666 4.266667 12.8 0 25.6-8.533333 29.866667-17.066667l17.066667-29.866667c42.666667-76.8 98.133333-123.733333 162.133333-123.733333h64l-42.666667 46.933333c-12.8 17.066667-12.8 38.4 0 55.466667 8.533333 8.533333 17.066667 12.8 25.6 12.8 8.533333 0 17.066667-4.266667 25.6-12.8l102.4-110.933333c12.8-17.066667 12.8-38.4 0-55.466667l-102.4-110.933333c-12.8-12.8-34.133333-17.066667-51.2 0-12.8 17.066667-12.8 38.4 0 55.466666l42.666667 46.933334h-64c-89.6 0-166.4 59.733333-221.866667 157.866666l-17.066666 29.866667c-4.266667 8.533333-8.533333 21.333333-4.266667 29.866667 4.266667 8.533333 8.533333 17.066667 17.066667 21.333333z m401.066666 324.266667l-102.4-110.933334c-12.8-12.8-34.133333-17.066667-51.2 0-12.8 17.066667-12.8 38.4 0 55.466667l42.666667 46.933333h-59.733333c-64 0-119.466667-42.666667-162.133334-123.733333l-157.866666-273.066667c-46.933333-93.866667-132.266667-153.6-230.4-157.866666h-89.6c-21.333333 0-34.133333 21.333333-34.133334 42.666666s17.066667 34.133333 34.133334 38.4h89.6c72.533333 4.266667 136.533333 51.2 170.666666 123.733334l153.6 273.066666c55.466667 102.4 132.266667 157.866667 221.866667 157.866667h59.733333l-42.666666 46.933333c-12.8 17.066667-12.8 38.4 0 55.466667 8.533333 8.533333 17.066667 12.8 25.6 12.8 8.533333 0 17.066667-4.266667 25.6-12.8l102.4-110.933333c17.066667-21.333333 17.066667-46.933333 4.266666-64z" fill="#ffffff" p-id="3014"></path></svg>