<?xml version="1.0" standalone="no"?><!DOCTYPE svg PUBLIC "-//W3C//DTD SVG 1.1//EN" "http://www.w3.org/Graphics/SVG/1.1/DTD/svg11.dtd"><svg t="1594373200124" class="icon" viewBox="0 0 1024 1024" version="1.1" xmlns="http://www.w3.org/2000/svg" p-id="13070" xmlns:xlink="http://www.w3.org/1999/xlink" width="64" height="64"><defs><style type="text/css"></style></defs><path d="M637.5424 775.0144a25.088 25.088 0 0 0 25.088-25.088V398.1312a25.088 25.088 0 0 0-50.176 0v351.7952a25.088 25.088 0 0 0 25.088 25.088zM386.304 775.0144a25.088 25.088 0 0 0 25.088-25.088V398.1312a25.088 25.088 0 0 0-50.176 0v351.7952c0 13.8752 11.2128 25.088 25.088 25.088zM511.9488 775.0144a25.088 25.088 0 0 0 25.088-25.088V398.1312a25.088 25.088 0 0 0-50.176 0v351.7952c0 13.8752 11.2128 25.088 25.088 25.088z" fill="#f73f44" p-id="13071"></path><path d="M888.8832 251.648h-167.168V199.3216c0-34.2016-27.8528-62.0544-62.0544-62.0544H364.3392c-16.5888 0-32.1536 6.4512-43.8784 18.176a61.7472 61.7472 0 0 0-18.2272 43.8784v52.3264H135.0656a25.088 25.088 0 0 0 0 50.176H210.432v559.8208c0 13.7728 11.1616 25.088 25.088 25.088h552.8576a25.088 25.088 0 0 0 25.088-25.088V301.824h75.3664a25.1392 25.1392 0 0 0 0.0512-50.176zM346.2144 199.3216c0-4.8128 1.8944-9.3696 5.2736-12.8a18.2784 18.2784 0 0 1 12.8512-5.2736h295.3216c9.984 0 18.0736 8.1408 18.0736 18.0736v52.3264h-15.0016v-0.1024H361.216v0.1024h-15.0016V199.3216z m416.9728 637.1328H260.7104V301.824h502.4768v534.6304z" fill="#f73f44" p-id="13072"></path></svg>