<?xml version="1.0" standalone="no"?><!DOCTYPE svg PUBLIC "-//W3C//DTD SVG 1.1//EN" "http://www.w3.org/Graphics/SVG/1.1/DTD/svg11.dtd"><svg t="1594373239396" class="icon" viewBox="0 0 1024 1024" version="1.1" xmlns="http://www.w3.org/2000/svg" p-id="13331" xmlns:xlink="http://www.w3.org/1999/xlink" width="64" height="64"><defs><style type="text/css"></style></defs><path d="M875.8784 164.573867H763.733333l17.066667-64c3.652267-15.240533 0.6144-31.095467-9.147733-43.281067-13.397333-16.452267-34.133333-26.2144-55.466667-26.811733l-287.6928-7.3216a65.979733 65.979733 0 0 0-67.652267 44.4928l-38.4 146.8928c-7.918933 5.495467-15.854933 12.202667-24.388266 18.909866l-163.959467 153.6A82.944 82.944 0 0 0 85.333333 462.626133v465.066667a83.626667 83.626667 0 0 0 83.5072 83.5072h471.773867c26.197333 0 51.2-12.8 66.440533-33.518933l1.211734 1.826133c5.4784-4.266667 141.4144-105.454933 171.281066-137.147733C928.9216 789.947733 938.666667 743.0144 938.666667 684.4928V227.345067a62.685867 62.685867 0 0 0-62.788267-62.7712z m-437.026133 0h194.440533c7.918933 0 14.0288 6.0928 14.0288 14.011733a13.789867 13.789867 0 0 1-14.0288 14.0288H438.852267a13.789867 13.789867 0 0 1-14.011734-14.0288c0.6144-7.918933 6.7072-14.011733 14.011734-14.011733z m-27.426134 96.904533H605.866667c7.918933 0 14.011733 6.109867 14.011733 14.0288a13.789867 13.789867 0 0 1-14.011733 14.011733H411.426133a13.789867 13.789867 0 0 1-14.011733-14.011733c0-7.918933 6.0928-14.0288 14.011733-14.0288z m-107.281066 22.562133l-24.3712 95.0784h-76.8l101.1712-95.0784z m377.9072 643.652267a41.489067 41.489067 0 0 1-41.437867 41.454933H168.840533a41.489067 41.489067 0 0 1-41.454933-41.454933v-465.066667c0-17.681067 10.973867-32.904533 28.040533-39.0144h0.6144l1.211734-1.211733c3.669333-1.211733 7.936-1.826133 12.202666-1.826133h504.064a9.386667 9.386667 0 0 1 9.147734 9.147733l-0.6144 497.9712z m70.7072-721.681067h126.788266l-169.454933 159.709867 42.666667-159.709867z m144.452266 478.481067c0 50.5856-7.918933 86.562133-48.145066 129.2288-16.452267 17.664-79.240533 66.423467-124.945067 101.7856V429.7216c-0.6144-5.495467-1.8432-11.588267-4.266667-16.469333l176.759467-166.4 0.597333 437.640533z" p-id="13332" fill="#8a8a8a"></path><path d="M338.2784 653.4144l-35.959467-35.362133 35.959467-35.959467a13.6192 13.6192 0 0 0-0.597333-19.5072c-5.495467-4.864-14.626133-4.864-19.5072 0.6144l-35.959467 35.959467L246.852267 563.2a13.6192 13.6192 0 0 0-19.5072 0 13.6192 13.6192 0 0 0 0 19.5072l35.976533 35.959467-35.976533 34.747733a13.6192 13.6192 0 0 0 0 19.5072 13.6192 13.6192 0 0 0 19.5072 0l35.959466-35.976533 35.362134 35.976533a13.6192 13.6192 0 0 0 19.5072 0 14.216533 14.216533 0 0 0 1.211733-19.5072c-0.6144 0.597333-0.6144 0-0.6144 0zM574.173867 563.2a13.6192 13.6192 0 0 0-19.5072 0l-35.959467 35.959467L482.747733 563.2a13.6192 13.6192 0 0 0-19.5072 0 13.6192 13.6192 0 0 0 0 19.5072l35.959467 35.959467-35.959467 34.747733a13.6192 13.6192 0 0 0 0 19.5072c2.440533 2.423467 6.0928 4.266667 9.745067 4.266667 3.669333 0 7.3216-1.2288 9.762133-4.266667l35.959467-35.976533L554.666667 672.938667a13.6192 13.6192 0 0 0 19.5072 0 13.6192 13.6192 0 0 0 0-19.5072l-35.959467-35.362134 35.959467-35.959466a14.0288 14.0288 0 0 0 0-18.8928zM369.988267 747.281067h82.8928c18.8928 0 28.040533 9.130667 28.040533 28.040533v82.8928c0 18.8928-9.147733 28.040533-28.040533 28.040533h-82.8928c-18.909867 0-28.040533-9.147733-28.040534-28.040533v-82.8928c0-18.909867 9.130667-28.040533 28.040534-28.040533z" p-id="13333" fill="#8a8a8a"></path></svg>